<svg width="135" height="135" viewBox="0 0 135 135" fill="none" xmlns="http://www.w3.org/2000/svg">
<path d="M125.745 7.19197C128.745 10.392 130.245 14.592 129.945 18.992C129.745 27.892 130.645 36.792 132.645 45.392C137.545 67.492 130.245 92.892 111.545 111.592C93.7446 129.292 70.0446 136.692 48.8446 133.292C38.7446 131.492 28.4446 131.192 18.2446 132.292C12.9446 132.892 8.04462 131.692 4.64462 128.292C1.24462 124.892 -0.0553828 119.992 0.644617 114.692C1.94462 104.592 1.94462 94.292 0.644617 84.192C-2.35538 63.192 5.14462 39.992 22.5446 22.492C40.9446 4.09197 65.8446 -3.20803 87.7446 1.29197C96.3446 2.99197 105.045 3.59197 113.845 3.09197C118.445 2.89197 122.745 4.19197 125.745 7.19197Z" fill="#FFE000"/>
<path d="M115.945 44.092C118.045 48.792 119.245 53.892 119.545 59.092C119.845 64.392 119.345 69.692 118.145 74.792C115.545 85.192 110.245 94.792 102.845 102.492C95.4446 110.292 86.1446 115.992 75.9446 118.992C65.8446 121.992 54.7446 122.092 45.2446 118.492C54.9446 117.992 64.4446 115.692 73.2446 111.692C81.6446 107.792 89.2446 102.292 95.6446 95.592C102.145 88.892 107.245 81.092 110.745 72.492C114.245 63.392 116.045 53.792 115.945 44.092Z" fill="#FFBE00"/>
</svg>
