<svg width="788" height="183" viewBox="0 0 788 183" fill="none" xmlns="http://www.w3.org/2000/svg">
<path d="M178.745 31.192C181.745 34.392 183.245 38.592 182.945 42.992C182.745 51.892 183.645 60.792 185.645 69.392C190.545 91.492 183.245 116.892 164.545 135.592C146.745 153.292 123.045 160.692 101.845 157.292C91.7446 155.492 81.4446 155.192 71.2446 156.292C65.9446 156.892 61.0446 155.692 57.6446 152.292C54.2446 148.892 52.9446 143.992 53.6446 138.692C54.9446 128.592 54.9446 118.292 53.6446 108.192C50.6446 87.192 58.1446 63.992 75.5446 46.492C93.9446 28.092 118.845 20.792 140.745 25.292C149.345 26.992 158.045 27.592 166.845 27.092C171.445 26.892 175.745 28.192 178.745 31.192Z" fill="#FFE000"/>
<path d="M168.945 68.092C171.045 72.792 172.245 77.892 172.545 83.092C172.845 88.392 172.345 93.692 171.145 98.792C168.545 109.192 163.245 118.792 155.845 126.492C148.445 134.292 139.145 139.992 128.945 142.992C118.845 145.992 107.745 146.092 98.2446 142.492C107.945 141.992 117.445 139.692 126.245 135.692C134.645 131.792 142.245 126.292 148.645 119.592C155.145 112.892 160.245 105.092 163.745 96.492C167.245 87.392 169.045 77.792 168.945 68.092Z" fill="#FFBE00"/>
<path d="M217.477 130.558C217.477 123.409 217.521 116.392 217.609 109.508C217.697 102.624 217.653 95.7838 217.477 88.9879C217.3 82.1919 216.947 75.396 216.417 68.6C215.888 61.7158 215.094 54.7433 214.034 47.6826C214.034 47.5061 213.902 47.153 213.637 46.6235C213.461 46.0939 213.284 45.5644 213.108 45.0348C212.931 44.417 212.755 43.8874 212.578 43.4462C212.402 43.0049 212.313 42.6959 212.313 42.5194C212.313 42.0781 212.446 41.5486 212.711 40.9308C213.064 40.313 213.461 39.7393 213.902 39.2097C214.432 38.5919 215.005 38.1065 215.623 37.7534C216.241 37.4004 216.859 37.268 217.477 37.3563C218.536 37.6211 219.374 38.283 219.992 39.3421C220.698 40.4012 221.228 41.5927 221.581 42.9166C221.934 44.1522 222.154 45.3879 222.243 46.6235C222.419 47.8591 222.507 48.7417 222.507 49.2713C225.155 47.8591 228.112 46.3587 231.377 44.77C234.731 43.0931 238.129 41.5927 241.571 40.2688C245.102 38.8567 248.588 37.7093 252.03 36.8267C255.56 35.8559 258.87 35.3704 261.959 35.3704C261.959 36.1648 261.783 36.8708 261.43 37.4887C261.165 38.1065 260.591 38.636 259.709 39.0773L222.507 57.7441V62.9073C222.596 63.8781 222.684 65.5551 222.772 67.9381C222.949 70.3211 223.125 72.8806 223.302 75.6166C223.478 78.2644 223.611 80.8239 223.699 83.2951C223.875 85.6781 224.008 87.3109 224.096 88.1935L251.368 72.9688L252.03 72.1745C252.471 71.6449 253.045 71.1595 253.751 70.7182C254.457 70.2769 255.163 70.0563 255.869 70.0563C256.664 69.968 257.414 70.4093 258.12 71.3802C258.12 72.9688 257.326 74.5134 255.737 76.0138C254.148 77.5142 252.162 79.0146 249.779 80.515C247.396 82.0154 244.793 83.4717 241.968 84.8838C239.232 86.296 236.673 87.664 234.29 88.9879C231.907 90.3117 229.921 91.6356 228.332 92.9595C226.744 94.2834 225.949 95.519 225.949 96.6664V122.217C227.097 122.659 228.686 122.482 230.715 121.688C232.834 120.805 235.173 119.614 237.732 118.113C240.292 116.613 242.939 114.892 245.675 112.95C248.411 110.92 251.059 109.023 253.619 107.257C256.266 105.492 258.694 103.904 260.9 102.491C263.195 101.079 265.092 100.241 266.593 99.9761C267.475 99.9761 268.27 100.153 268.976 100.506C269.682 100.859 270.035 101.565 270.035 102.624C270.035 103.683 269.417 104.521 268.181 105.139C265.092 106.993 261.518 109.332 257.458 112.156C253.486 114.892 249.426 117.672 245.278 120.496C241.13 123.232 237.026 125.748 232.966 128.043C228.994 130.249 225.552 131.705 222.64 132.411C221.492 132.411 220.566 132.323 219.86 132.147C219.154 131.97 218.359 131.44 217.477 130.558ZM278.508 127.248C279.126 123.188 279.523 118.113 279.699 112.023C279.964 105.934 280.052 99.4466 279.964 92.5623C279.964 85.6781 279.832 78.5733 279.567 71.2478C279.302 63.9223 278.949 56.9939 278.508 50.4628C278.066 43.8433 277.537 37.93 276.919 32.7227C276.39 27.5154 275.816 23.4113 275.198 20.4105C275.992 19.881 276.654 19.4838 277.184 19.219C277.802 18.866 278.508 18.6895 279.302 18.6895C279.92 18.6895 280.449 18.8219 280.891 19.0866C281.332 19.2632 281.685 19.7045 281.95 20.4105C283.715 37.7093 284.907 55.1405 285.524 72.704C286.23 90.2676 286.76 107.743 287.113 125.13C287.113 125.924 287.113 127.028 287.113 128.44C287.113 129.764 287.069 130.47 286.981 130.558C285.745 131.176 284.642 131.485 283.671 131.485C282.7 131.396 281.817 131.132 281.023 130.69C280.229 130.161 279.611 129.587 279.17 128.969C278.728 128.351 278.508 127.778 278.508 127.248ZM296.513 131.352C296.513 125.615 296.38 119.57 296.115 113.215C295.939 106.86 295.718 100.462 295.454 94.0186C295.277 87.4874 295.233 81.0887 295.321 74.8223C295.409 68.5559 295.807 62.6866 296.513 57.2146C296.689 57.1263 297.086 57.0822 297.704 57.0822C298.41 56.9939 298.896 56.9498 299.16 56.9498C300.396 56.9498 301.367 57.1704 302.073 57.6117C302.867 57.9648 303.264 58.8032 303.264 60.1271C303.264 65.3344 303.22 71.0271 303.132 77.2053C303.132 83.2951 303.088 89.5174 303 95.8721C303 102.138 303 108.361 303 114.539C303 120.717 303.088 126.321 303.264 131.352C303.353 132.853 303.044 133.823 302.338 134.265C301.72 134.794 300.926 135.059 299.955 135.059C298.896 135.059 298.013 134.794 297.307 134.265C296.601 133.823 296.336 132.853 296.513 131.352ZM293.6 36.5619C293.6 35.5028 293.953 34.7968 294.659 34.4437C295.365 34.0907 296.16 33.9142 297.042 33.9142C298.807 33.9142 299.911 34.4879 300.352 35.6352C300.793 36.7826 301.014 38.1065 301.014 39.6069C300.484 40.5777 299.822 41.2838 299.028 41.7251C298.234 42.0781 297.395 42.1664 296.513 41.9899C295.718 41.7251 295.012 41.1514 294.394 40.2688C293.865 39.3862 293.6 38.1506 293.6 36.5619ZM376.475 128.837C376.299 117.628 376.078 108.052 375.813 100.109C375.637 92.0769 375.46 85.3251 375.284 79.853C375.107 74.381 374.887 70.0563 374.622 66.8789C374.445 63.6134 374.313 61.0097 374.225 59.068C374.137 57.1263 374.048 55.7583 373.96 54.964C373.872 54.0814 373.828 53.2429 373.828 52.4486C373.828 50.9482 374.269 50.0215 375.151 49.6684C376.034 49.2271 377.137 49.0065 378.461 49.0065C379.962 49.0065 381.109 49.3154 381.903 49.9332C382.786 50.4628 383.227 51.919 383.227 54.302L385.743 125.527C385.831 125.527 386.272 125.439 387.066 125.262C387.861 125.086 388.788 124.821 389.847 124.468C390.906 124.115 392.009 123.762 393.156 123.409C394.304 122.968 395.23 122.57 395.937 122.217C396.996 121.776 398.584 121.07 400.702 120.099C402.821 119.128 405.204 118.025 407.851 116.789C410.499 115.554 413.279 114.274 416.192 112.95C419.193 111.538 422.017 110.258 424.665 109.111C427.401 107.875 429.784 106.772 431.814 105.801C433.932 104.742 435.521 103.992 436.58 103.551H438.168C438.698 103.551 439.228 103.595 439.757 103.683C440.287 103.771 440.728 103.992 441.081 104.345C441.434 104.698 441.655 105.228 441.743 105.934C441.743 106.816 441.566 107.566 441.213 108.184C440.949 108.802 440.551 109.508 440.022 110.302C434.815 111.273 429.696 113.038 424.665 115.598C419.722 118.157 414.78 120.805 409.837 123.541C404.983 126.277 400.041 128.704 395.01 130.823C390.067 132.941 384.992 134 379.785 134C377.579 134 376.475 132.279 376.475 128.837ZM450.083 105.404C449.642 105.492 448.98 105.625 448.098 105.801C447.215 105.978 446.288 106.022 445.317 105.934C444.347 105.845 443.508 105.581 442.802 105.139C442.008 104.698 441.611 103.948 441.611 102.889C441.611 102.271 441.743 101.83 442.008 101.565C442.273 101.3 442.714 100.903 443.332 100.373C445.273 98.7846 446.906 96.7547 448.23 94.2834C449.642 91.7239 450.922 89.032 452.069 86.2077C453.217 83.2951 454.408 80.4267 455.644 77.6024C456.968 74.6899 458.468 72.0862 460.145 69.7915C461.822 67.4968 463.896 65.6433 466.367 64.2312C468.839 62.819 471.883 62.1571 475.502 62.2453C477.002 62.2453 478.679 62.5984 480.533 63.3045C482.386 64.0105 484.107 64.9814 485.696 66.217C487.285 67.3644 488.609 68.7765 489.668 70.4534C490.727 72.1304 491.256 73.9838 491.256 76.0138C491.698 76.7198 491.256 77.7348 489.932 79.0587C488.697 80.3826 486.976 81.8389 484.769 83.4275C482.563 84.9279 480.047 86.5166 477.223 88.1935C474.487 89.7822 471.839 91.2826 469.28 92.6947C466.72 94.1069 464.47 95.3425 462.528 96.4016C460.586 97.4607 459.307 98.2551 458.689 98.7846C458.247 99.6672 457.894 100.682 457.63 101.83C457.365 102.977 457.144 104.08 456.968 105.139C456.879 106.11 456.791 107.037 456.703 107.919C456.703 108.714 456.703 109.332 456.703 109.773C456.703 111.45 456.615 113.303 456.438 115.333C456.35 117.363 456.438 119.305 456.703 121.158C457.056 122.923 457.806 124.424 458.954 125.66C460.101 126.807 462.043 127.381 464.779 127.381C467.691 127.381 470.427 126.674 472.987 125.262C475.546 123.762 477.929 121.953 480.136 119.834C482.342 117.716 484.328 115.421 486.093 112.95C487.947 110.479 489.579 108.184 490.992 106.066C492.492 103.86 493.816 102.05 494.963 100.638C496.111 99.2259 497.081 98.5198 497.876 98.5198C498.758 98.5198 499.685 98.6964 500.656 99.0494C501.715 99.3142 502.245 100.02 502.245 101.168C502.245 102.756 501.583 104.654 500.259 106.86C499.023 109.067 497.346 111.406 495.228 113.877C493.198 116.348 490.815 118.819 488.079 121.291C485.431 123.674 482.739 125.836 480.003 127.778C477.267 129.631 474.575 131.176 471.928 132.411C469.28 133.559 466.941 134.132 464.911 134.132C460.939 134.132 457.939 133.162 455.909 131.22C453.879 129.278 452.422 126.851 451.54 123.938C450.745 121.026 450.304 117.937 450.216 114.671C450.216 111.317 450.172 108.228 450.083 105.404ZM474.443 69.6591C472.943 69.6591 471.354 70.4093 469.677 71.9097C468 73.3219 466.411 75.087 464.911 77.2053C463.499 79.2352 462.307 81.3534 461.337 83.5599C460.454 85.6781 460.013 87.4433 460.013 88.8555C461.337 88.8555 463.234 88.37 465.705 87.3992C468.265 86.3401 470.78 85.0603 473.251 83.5599C475.723 82.0595 477.885 80.4708 479.739 78.7939C481.592 77.117 482.519 75.5283 482.519 74.0279C482.519 73.2336 482.21 72.5717 481.592 72.0421C480.974 71.5125 480.224 71.0713 479.341 70.7182C478.547 70.3652 477.709 70.1004 476.826 69.9239C475.943 69.7474 475.149 69.6591 474.443 69.6591ZM514.16 133.603C513.895 131.132 513.674 127.778 513.498 123.541C513.321 119.305 513.145 114.715 512.968 109.773C512.792 104.742 512.571 99.5348 512.306 94.151C512.13 88.7672 511.909 83.6482 511.644 78.7939C511.379 73.9397 511.026 69.5267 510.585 65.5551C510.232 61.5834 509.835 58.4061 509.394 56.0231C509.394 54.2579 509.791 53.2429 510.585 52.9781C511.379 52.6251 512.394 52.4486 513.63 52.4486C513.807 52.4486 514.204 52.4486 514.822 52.4486C515.439 52.4486 515.881 52.4927 516.145 52.581C516.94 55.2287 517.425 58.6708 517.602 62.9073C517.866 67.0555 518.043 71.6008 518.131 76.5433C518.308 81.4858 518.44 86.6049 518.528 91.9004C518.705 97.196 519.014 102.227 519.455 106.993C520.691 100.02 521.706 94.2393 522.5 89.6498C523.383 85.0603 524.177 81.3976 524.883 78.6615C525.677 75.8372 526.383 73.7632 527.001 72.4393C527.707 71.0271 528.458 70.1004 529.252 69.6591C530.134 69.2178 531.061 69.0413 532.032 69.1296C533.091 69.1296 534.327 69.1296 535.739 69.1296C537.328 69.1296 538.607 69.7474 539.578 70.983C540.637 72.2186 541.432 73.8073 541.961 75.749C542.579 77.6907 543.02 79.8089 543.285 82.1036C543.638 84.3984 543.947 86.649 544.212 88.8555C544.477 90.9737 544.741 92.9154 545.006 94.6806C545.359 96.4457 545.889 97.6814 546.595 98.3874C548.801 91.8563 550.699 86.5166 552.288 82.3684C553.876 78.2202 555.244 74.9547 556.392 72.5717C557.539 70.1004 558.554 68.3352 559.437 67.2761C560.319 66.217 561.113 65.5992 561.82 65.4227C562.526 65.1579 563.143 65.1138 563.673 65.2903C564.291 65.4668 564.909 65.5551 565.526 65.5551C567.909 65.5551 569.719 66.7907 570.954 69.2619C572.366 73.2336 573.337 77.0287 573.867 80.6474C574.396 84.1777 574.705 87.6198 574.794 90.9737C574.882 94.2393 574.882 97.3725 574.794 100.373C574.794 103.374 574.882 106.287 575.058 109.111C575.323 111.935 575.809 114.715 576.515 117.451C577.309 120.187 578.633 122.879 580.486 125.527C579.78 126.939 579.074 127.91 578.368 128.44C577.662 128.881 576.691 129.102 575.456 129.102C574.396 129.102 573.47 128.749 572.675 128.043C571.881 127.248 571.219 126.321 570.69 125.262C570.16 124.115 569.719 122.968 569.366 121.82C569.101 120.673 568.836 119.658 568.571 118.775C568.218 106.154 567.645 96.4899 566.85 89.7822C566.144 82.9862 565.041 79.4117 563.541 79.0587C562.04 78.7057 560.098 81.6623 557.715 87.9287C555.421 94.1069 552.552 103.815 549.11 117.054C548.845 117.496 548.448 117.76 547.919 117.849C547.389 117.937 546.815 117.981 546.198 117.981C545.668 117.981 545.094 117.981 544.477 117.981C543.947 117.893 543.417 117.893 542.888 117.981C540.681 105.007 538.828 95.6955 537.328 90.047C535.915 84.3101 534.459 82.1036 532.959 83.4275C531.458 84.7514 529.781 89.5174 527.928 97.7255C526.075 105.845 523.692 117.275 520.779 132.014L514.16 133.603ZM587.238 115.863C586.62 111.803 586.311 107.875 586.311 104.08C586.311 100.197 586.532 96.2692 586.973 92.2976C587.503 88.3259 588.209 84.2219 589.092 79.9854C590.062 75.6607 591.166 71.0271 592.401 66.0846C592.401 65.1138 592.666 64.2312 593.196 63.4368C593.725 62.5542 594.431 61.8482 595.314 61.3186C596.196 60.7008 597.123 60.2154 598.094 59.8623C599.065 59.5093 599.992 59.3328 600.874 59.3328C602.816 59.3328 604.581 59.9506 606.17 61.1862C607.758 62.4219 609.171 63.9223 610.406 65.6874C611.73 67.4526 612.833 69.3502 613.716 71.3802C614.687 73.3219 615.481 74.9988 616.099 76.4109C616.805 79.5 617.29 83.0304 617.555 87.002C617.908 90.8854 617.952 94.8571 617.688 98.917C617.423 102.977 616.805 106.993 615.834 110.964C614.863 114.848 613.495 118.422 611.73 121.688C609.965 124.953 607.67 127.689 604.846 129.896C602.11 132.102 598.844 133.47 595.049 134C593.019 134 591.475 133.338 590.415 132.014C589.356 130.602 588.562 128.925 588.032 126.983C587.591 124.953 587.326 122.923 587.238 120.894C587.238 118.864 587.238 117.187 587.238 115.863ZM593.99 115.466C593.99 116.348 593.99 117.187 593.99 117.981C594.078 118.775 594.166 119.57 594.255 120.364C594.431 121.07 594.608 121.864 594.784 122.747C595.049 123.541 595.358 124.468 595.711 125.527H596.505C598.624 125.527 600.433 124.821 601.933 123.409C603.434 121.997 604.713 120.187 605.773 117.981C606.832 115.686 607.714 113.171 608.42 110.435C609.126 107.611 609.656 104.874 610.009 102.227C610.45 99.4907 610.715 96.9753 610.803 94.6806C610.98 92.2976 611.068 90.4 611.068 88.9879V86.3401C611.068 85.1927 611.024 83.913 610.936 82.5008C610.847 81.0004 610.671 79.5 610.406 77.9996C610.23 76.4109 609.921 74.9988 609.479 73.7632C609.038 72.4393 608.464 71.3802 607.758 70.5858C607.052 69.7915 606.126 69.3943 604.978 69.3943C603.037 68.7765 601.36 68.9089 599.947 69.7915C598.624 70.6741 597.52 72.1745 596.638 74.2927C595.843 76.3227 595.226 78.8381 594.784 81.8389C594.343 84.8397 594.078 88.1494 593.99 91.768C593.902 95.3866 593.858 99.2259 593.858 103.286C593.946 107.346 593.99 111.406 593.99 115.466ZM629.073 132.279C628.102 120.364 627.22 108.449 626.425 96.534C625.719 84.5308 624.925 72.0862 624.042 59.2004C624.042 57.0822 625.19 56.0231 627.484 56.0231H628.543C628.808 56.0231 629.117 56.3761 629.47 57.0822C629.823 57.7883 630.176 59.1121 630.529 61.0538C630.971 62.9073 631.412 65.7757 631.853 69.6591C632.383 73.4542 633 78.4409 633.707 84.619C634.413 90.7972 635.207 98.5198 636.09 107.787C637.943 101.785 639.399 95.9603 640.458 90.3117C641.517 84.6632 642.886 79.5441 644.562 74.9547C646.239 70.2769 648.578 66.1729 651.579 62.6425C654.668 59.1121 659.081 56.5085 664.818 54.8316C667.995 55.3611 670.555 57.3028 672.496 60.6567C674.438 63.9223 675.983 67.9822 677.13 72.8364C678.277 77.6907 679.072 82.9862 679.513 88.7231C679.954 94.3717 680.219 99.7996 680.307 105.007C680.396 110.214 680.44 114.892 680.44 119.04C680.44 123.1 680.528 126.013 680.705 127.778C680.44 128.484 680.043 129.102 679.513 129.631C678.983 130.161 678.366 130.558 677.66 130.823C677.042 130.999 676.424 131.043 675.806 130.955C675.188 130.779 674.615 130.293 674.085 129.499C674.085 128.528 673.997 126.542 673.82 123.541C673.644 120.54 673.423 117.054 673.158 113.083C672.894 109.023 672.585 104.742 672.232 100.241C671.967 95.6514 671.702 91.3708 671.437 87.3992C671.261 83.3393 671.084 79.8089 670.908 76.8081C670.731 73.8073 670.599 71.8215 670.511 70.8506C668.657 67.585 666.804 65.7316 664.95 65.2903C663.185 64.849 661.376 65.4227 659.522 67.0113C657.757 68.6 656.036 71.0271 654.359 74.2927C652.682 77.5583 651.094 81.2652 649.593 85.4134C648.093 89.4733 646.681 93.7538 645.357 98.2551C644.033 102.756 642.886 107.125 641.915 111.362C640.944 115.51 640.105 119.305 639.399 122.747C638.781 126.101 638.384 128.704 638.208 130.558C637.943 131.176 637.369 131.794 636.487 132.411C635.692 132.941 634.81 133.338 633.839 133.603C632.956 133.868 632.03 133.956 631.059 133.868C630.176 133.691 629.514 133.162 629.073 132.279ZM699.504 132.014C699.504 132.102 700.43 131.573 702.284 130.426C704.226 129.278 706.476 127.778 709.036 125.924C711.683 123.983 714.375 121.909 717.111 119.702C719.847 117.407 722.098 115.245 723.863 113.215C725.628 111.185 726.555 109.464 726.643 108.052C726.82 106.551 725.628 105.581 723.069 105.139C719.892 104.698 717.2 104.742 714.993 105.272C712.875 105.801 710.933 106.419 709.168 107.125C707.403 107.831 705.726 108.493 704.137 109.111C702.637 109.729 700.96 109.949 699.107 109.773C695.223 109.773 692.531 108.581 691.031 106.198C689.619 103.727 688.913 100.417 688.913 96.2692C688.913 92.1211 689.839 88.1935 691.693 84.4866C693.546 80.6915 695.929 77.4259 698.842 74.6899C701.754 71.9538 705.108 69.7915 708.903 68.2028C712.698 66.5259 716.582 65.6874 720.554 65.6874C722.142 65.6874 723.51 65.8198 724.658 66.0846C725.805 66.3494 726.379 67.3644 726.379 69.1296C726.379 70.3652 725.849 71.5567 724.79 72.704C723.731 73.7632 722.539 74.2927 721.215 74.2927C721.127 74.2927 720.907 74.2486 720.554 74.1603C720.2 73.9838 719.847 73.7632 719.494 73.4984C719.141 73.2336 718.788 73.0571 718.435 72.9688C718.082 72.7923 717.862 72.704 717.773 72.704C714.949 71.9097 712.213 72.3069 709.565 73.8955C706.917 75.4842 704.534 77.6466 702.416 80.3826C700.386 83.0304 698.754 85.9429 697.518 89.1202C696.282 92.2093 695.664 94.9895 695.664 97.4607C695.664 98.4316 695.841 99.2259 696.194 99.8437C696.635 100.373 697.165 100.77 697.783 101.035C698.489 101.3 699.239 101.477 700.033 101.565C700.916 101.565 701.798 101.565 702.681 101.565C704.446 101.565 706.211 101.3 707.977 100.77C709.83 100.241 711.595 99.6231 713.272 98.917C715.037 98.2109 716.803 97.5931 718.568 97.0636C720.421 96.534 722.319 96.2692 724.26 96.2692C725.143 96.2692 726.114 96.534 727.173 97.0636C728.232 97.5049 729.203 98.2109 730.085 99.1818C730.968 100.064 731.718 101.123 732.336 102.359C732.954 103.506 733.307 104.786 733.395 106.198C733.925 107.434 733.748 109.067 732.866 111.097C732.071 113.127 730.836 115.289 729.159 117.584C727.482 119.879 725.452 122.217 723.069 124.6C720.686 126.895 718.303 129.013 715.92 130.955C713.537 132.809 711.198 134.309 708.903 135.456C706.609 136.692 704.667 137.266 703.078 137.177C701.313 137.177 700.254 136.648 699.901 135.589C699.636 134.53 699.504 133.338 699.504 132.014Z" fill="#FEFEFE"/>
</svg>
